<svg width="98" height="24" viewBox="0 0 98 24" fill="none" xmlns="http://www.w3.org/2000/svg">
<path d="M26.199 0.203331L19.2304 12.2714L26.5512 16.6351L33.8719 12.2714L26.9034 0.203333C26.7468 -0.0677766 26.3555 -0.0677779 26.199 0.203331Z" fill="white"/>
<path d="M26.217 23.8251L19.2304 13.7517L26.5512 18.1153L33.8719 13.7517L26.8854 23.8251C26.7236 24.0583 26.3787 24.0583 26.217 23.8251Z" fill="white"/>
<path fill-rule="evenodd" clip-rule="evenodd" d="M86.635 22.6097C85.1366 22.6097 83.7481 22.35 82.4695 21.8306C81.2108 21.3111 80.112 20.5819 79.173 19.6429C78.254 18.6839 77.5347 17.5651 77.0153 16.2865C76.4959 15.0079 76.2361 13.6094 76.2361 12.091C76.2361 10.5726 76.4959 9.17411 77.0153 7.89548C77.5347 6.61684 78.254 5.50803 79.173 4.56904C80.112 3.63004 81.2108 2.90082 82.4695 2.38138C83.7481 1.86193 85.1366 1.60221 86.635 1.60221C88.1334 1.60221 89.5119 1.86193 90.7706 2.38138C92.0492 2.90082 93.158 3.63004 94.097 4.56904C95.036 5.50803 95.7552 6.61684 96.2547 7.89548C96.7741 9.17411 97.0339 10.5726 97.0339 12.091C97.0339 13.6094 96.7741 15.0079 96.2547 16.2865C95.7552 17.5651 95.036 18.6839 94.097 19.6429C93.158 20.5819 92.0492 21.3111 90.7706 21.8306C89.5119 22.35 88.1334 22.6097 86.635 22.6097ZM86.635 17.6351C87.6939 17.6351 88.5829 17.3853 89.3022 16.8859C90.0414 16.3864 90.6008 15.7171 90.9804 14.878C91.3599 14.0389 91.5497 13.1099 91.5497 12.091C91.5497 11.0721 91.3599 10.1431 90.9804 9.30397C90.6008 8.46487 90.0414 7.79558 89.3022 7.29612C88.5829 6.79665 87.6939 6.54692 86.635 6.54692C85.5961 6.54692 84.7071 6.79665 83.9679 7.29612C83.2486 7.79558 82.6892 8.46487 82.2897 9.30397C81.9101 10.1431 81.7203 11.0721 81.7203 12.091C81.7203 13.1099 81.9101 14.0389 82.2897 14.878C82.6892 15.7171 83.2486 16.3864 83.9679 16.8859C84.7071 17.3853 85.5961 17.6351 86.635 17.6351Z" fill="white"/>
<path fill-rule="evenodd" clip-rule="evenodd" d="M37.4483 2.14163V22.1302H45.0901C47.1279 22.1302 48.956 21.7706 50.5742 21.0514C52.2125 20.3122 53.5011 19.2134 54.4401 17.7549C55.3791 16.2765 55.8486 14.4385 55.8486 12.2408C55.8486 9.90333 55.3791 7.99537 54.4401 6.51695C53.5011 5.01856 52.2225 3.91973 50.6042 3.22048C49.0059 2.50125 47.1779 2.14163 45.1201 2.14163H37.4483ZM44.9103 17.4552H42.7526V6.78666H44.9103C46.7883 6.78666 48.1668 7.27614 49.0459 8.25509C49.9249 9.23404 50.3644 10.5227 50.3644 12.121C50.3644 13.6993 49.885 14.9879 48.926 15.9868C47.967 16.9658 46.6284 17.4552 44.9103 17.4552Z" fill="white"/>
<path fill-rule="evenodd" clip-rule="evenodd" d="M63.1298 2.14163L55.7877 22.1302H61.2718L62.5904 17.9947H69.2733L70.5619 22.1302H76.2858L69.2133 2.14163H63.1298ZM68.1944 14.1288H63.6693L65.9768 6.78666L68.1944 14.1288Z" fill="white"/>
<path d="M15.4634 6.78665H0.299679V2.14163H15.4634V6.78665Z" fill="white"/>
<path d="M1.52836 14.2786V9.84338H14.2647V14.2786H1.52836Z" fill="white"/>
<path d="M0 22.1302V17.4852H15.7631V22.1302H0Z" fill="white"/>
</svg>
