<svg
  xmlns="http://www.w3.org/2000/svg"
  width="474"
  height="70"
  fill="none"
  viewBox="0 0 474 70"
>
  <path
    fill="#9CABB0"
    d="M11.288 69.077c-.812 0-1.503-.218-2.071-.652-.569-.434-.853-.961-.853-1.582v-.52h1.974v.52c0 .199.09.373.268.521.195.137.422.205.682.205h11.697c.26 0 .48-.068.659-.205.194-.148.292-.322.292-.52v-2.997c0-.199-.098-.366-.293-.503a1.052 1.052 0 00-.658-.205H11.288c-.812 0-1.503-.217-2.071-.651-.569-.447-.853-.974-.853-1.582v-2.997c0-.62.284-1.147.853-1.582.568-.434 1.259-.651 2.071-.651h11.697c.813 0 1.503.217 2.072.651.569.435.853.962.853 1.582v.522h-1.974v-.522c0-.198-.098-.366-.293-.502a.994.994 0 00-.658-.224H11.288c-.26 0-.487.075-.682.224-.179.136-.268.304-.268.502v2.997c0 .198.09.366.268.502.195.137.422.205.682.205h11.697c.813 0 1.503.224 2.072.67.569.434.853.956.853 1.564v2.996c0 .62-.285 1.148-.853 1.582-.569.434-1.26.652-2.072.652H11.288zM36.151 69.077c-.812 0-1.502-.218-2.07-.652-.57-.434-.854-.961-.854-1.582V57.91c0-.62.285-1.147.853-1.582.569-.434 1.26-.651 2.072-.651h11.697c.812 0 1.503.217 2.071.651.569.435.853.962.853 1.582v8.934c0 .62-.284 1.148-.853 1.582-.568.434-1.259.652-2.071.652H36.152zm0-1.508H47.85c.26 0 .48-.068.658-.205.195-.148.292-.322.292-.52v-8.935c0-.198-.097-.366-.292-.502a.993.993 0 00-.658-.224H36.152c-.26 0-.488.075-.683.224-.179.136-.268.304-.268.502v8.934c0 .199.09.373.268.521.195.137.422.205.682.205zM58.233 69.077v-13.42h1.974V67.57H75.78v1.508H58.233zM81.855 69.077V55.676h1.998v13.4h-1.998zM91.965 69.077V55.676h14.621c.813 0 1.503.217 2.072.651.568.435.853.962.853 1.582v8.934c0 .62-.285 1.148-.853 1.582-.569.434-1.259.652-2.072.652H91.965zm2.924-1.508h11.697c.26 0 .48-.068.658-.205.195-.148.293-.322.293-.52v-8.935c0-.198-.098-.366-.293-.502a.992.992 0 00-.658-.224H94.889c-.26 0-.487.075-.682.224-.179.136-.268.304-.268.502v8.934c0 .199.089.373.268.521.195.137.422.205.682.205zM116.894 69.077V55.676h1.999v13.4h-1.999zM127.004 69.077V55.676h16.011v1.507h-14.037v4.43h11.283v1.526h-11.283v5.938h-1.974zM156.434 69.077v-5.044l-8.066-8.357h2.267l6.799 6.551 6.726-6.551h2.315l-8.067 8.357v5.044h-1.974zM173.607 69.077V55.676h1.998v13.4h-1.998zM183.668 69.077V55.676h2.705l12.867 11.688V55.676h1.974v13.4h-2.705l-12.867-11.688v11.689h-1.974zM211.621 69.077c-.813 0-1.503-.218-2.072-.652-.568-.434-.853-.961-.853-1.582V57.91c0-.62.285-1.147.853-1.582.569-.434 1.259-.651 2.072-.651h11.697c.812 0 1.503.217 2.072.651.568.435.852.962.852 1.582v.54h-1.973v-.54c0-.198-.098-.366-.293-.502a.994.994 0 00-.658-.224h-11.697c-.26 0-.488.075-.683.224-.178.136-.268.304-.268.502v8.934c0 .199.09.373.268.521.195.137.423.205.683.205h11.697c.26 0 .479-.068.658-.205.195-.148.293-.322.293-.52V63.53h-4.338v-1.526h6.311v4.84c0 .62-.284 1.147-.852 1.581-.569.434-1.26.652-2.072.652h-11.697zM251.99 69.077V57.183h-7.798v-1.507h17.546v1.507h-7.774v11.894h-1.974zM268.337 69.077V55.676h1.974v5.937h14.012v-5.937h1.998v13.4h-1.998V63.14h-14.012v5.938h-1.974zM293.841 69.077V55.676h16.011v1.507h-14.037v4.43h11.283v1.526h-11.283v4.43h14.037v1.508h-16.011zM328.643 69.077V55.676h16.011v1.507h-14.037v4.43H341.9v1.526h-11.283v5.938h-1.974zM353.833 69.077c-.812 0-1.503-.218-2.072-.652-.568-.434-.852-.961-.852-1.582V55.676h1.973v11.167c0 .199.09.373.269.521.194.137.422.205.682.205h11.697c.26 0 .479-.068.658-.205.195-.148.293-.322.293-.52V55.675h1.974v11.167c0 .62-.285 1.148-.853 1.582-.569.434-1.259.652-2.072.652h-11.697zM382.811 69.077V57.183h-7.798v-1.507h17.546v1.507h-7.774v11.894h-1.974zM402.009 69.077c-.812 0-1.503-.218-2.071-.652-.569-.434-.853-.961-.853-1.582V55.676h1.974v11.167c0 .199.089.373.268.521.195.137.422.205.682.205h11.698c.26 0 .479-.068.658-.205.195-.148.292-.322.292-.52V55.675h1.974v11.167c0 .62-.284 1.148-.853 1.582-.569.434-1.259.652-2.071.652h-11.698zM424.042 69.077V55.694h14.622c.812 0 1.503.224 2.072.67.568.435.852.956.852 1.564v3.927c0 .608-.284 1.136-.852 1.582-.569.434-1.26.652-2.072.652h-2.681l5.508 4.97v.018h-2.608l-5.483-4.988-7.384-.019v5.007h-1.974zm2.925-6.515h11.697c.26 0 .479-.068.658-.204.179-.137.268-.304.268-.503v-3.927c0-.199-.089-.366-.268-.503a.994.994 0 00-.658-.223h-11.697c-.26 0-.488.075-.683.223-.178.137-.268.304-.268.503v3.927c0 .199.09.366.268.503.195.136.423.204.683.204zM448.977 69.077V55.676h16.011v1.507h-14.037v4.43h11.283v1.526h-11.283v4.43h14.037v1.508h-16.011z"
  ></path>
  <g fill="#fff">
    <path d="M40.028 12.08H4.698V1.256h35.33v10.822zM7.561 29.534V19.2h29.674v10.334H7.561zM4 47.828V37.006h36.727v10.822H4zM49.333 34.004v-9.915h-4.818v-9.077h4.818V4.189h11.8v10.823h8.1v9.077h-8.1v11.59c0 2.7 1.28 4.05 3.84 4.05.745 0 1.466-.163 2.164-.489a11.99 11.99 0 002.025-1.117l4.608 7.262a17.72 17.72 0 01-4.957 2.723 16.414 16.414 0 01-5.586.977c-3.537 0-6.33-.651-8.378-1.955-2.002-1.303-3.422-3.072-4.26-5.306-.837-2.281-1.256-4.888-1.256-7.82zM77.513 47.828V1.257h11.8v16.757c.884-1.07 1.908-1.885 3.072-2.444a12.687 12.687 0 013.49-1.117c1.165-.186 2.142-.28 2.933-.28 2.281 0 4.353.443 6.215 1.328 1.862.884 3.328 2.28 4.398 4.189 1.118 1.908 1.676 4.399 1.676 7.47v20.668h-11.8V30.233c0-1.769-.395-3.142-1.187-4.12-.745-1.023-1.862-1.535-3.351-1.535-2.095 0-3.538.605-4.33 1.815a7.328 7.328 0 00-1.116 3.91v17.525h-11.8zM145.111 37.774l3.701 7.68c-1.071.605-2.793 1.35-5.167 2.235-2.374.838-5.214 1.257-8.519 1.257-6.004 0-10.636-1.513-13.894-4.539-3.212-3.072-4.818-7.355-4.818-12.847 0-2.188.349-4.33 1.047-6.424a17.32 17.32 0 013.142-5.656c1.443-1.722 3.235-3.072 5.377-4.05 2.187-1.023 4.724-1.535 7.61-1.535 3.026 0 5.749.698 8.17 2.094 2.467 1.35 4.422 3.422 5.865 6.214 1.443 2.747 2.164 6.238 2.164 10.474v2.234h-22.203c.046.745.302 1.536.768 2.374.512.792 1.35 1.466 2.513 2.025 1.21.559 2.84.838 4.888.838 2.001 0 3.84-.256 5.516-.768 1.676-.512 2.956-1.047 3.84-1.606zm-17.456-9.845h11.661c0-.745-.21-1.513-.629-2.304-.419-.791-1.07-1.466-1.955-2.025-.838-.605-1.931-.908-3.281-.908-1.304 0-2.398.303-3.282.908-.838.558-1.466 1.233-1.885 2.025-.419.791-.629 1.56-.629 2.304zM155.04 47.828V15.012h11.381l.419 4.12a12.757 12.757 0 013.421-3.282c1.397-.931 3.072-1.397 5.027-1.397.931 0 1.723.047 2.374.14a8.71 8.71 0 011.816.419l-1.536 10.054a14.055 14.055 0 00-3.422-.419c-5.12 0-7.68 2.817-7.68 8.449v14.732h-11.8zM183.269 47.828V15.012h11.381l.419 3.421c.884-1.07 1.908-1.908 3.072-2.514 1.164-.651 2.327-1.093 3.491-1.326 1.164-.28 2.141-.42 2.933-.42 2.281 0 4.329.443 6.144 1.328 1.815.884 3.235 2.28 4.259 4.189 1.071 1.908 1.606 4.399 1.606 7.47v20.668h-11.8V29.954c0-1.63-.349-2.933-1.047-3.91-.652-.978-1.722-1.466-3.212-1.466-2.095 0-3.538.605-4.329 1.815a7.326 7.326 0 00-1.117 3.91v17.525h-11.8zM242.286 47.828l-.419-3.072c-1.49 1.583-3.003 2.677-4.539 3.282-1.489.605-3.351.908-5.585.908-1.443 0-2.956-.28-4.539-.838-1.583-.559-2.932-1.56-4.05-3.003-1.117-1.443-1.675-3.468-1.675-6.074 0-2.654.721-4.865 2.164-6.633 1.443-1.77 3.352-3.096 5.726-3.98 2.42-.931 5.027-1.397 7.82-1.397 1.07 0 1.931.023 2.583.07.652.047 1.35.116 2.095.21v-.629c0-1.164-.303-2.025-.908-2.583a3.94 3.94 0 00-2.095-1.187 9.106 9.106 0 00-2.443-.35c-2.048 0-3.887.28-5.516.838-1.583.512-2.863 1.118-3.841 1.816l-4.468-6.773c1.396-1.117 3.351-2.141 5.865-3.072 2.56-.931 5.772-1.397 9.635-1.397 4.562 0 8.239 1.188 11.032 3.561 2.84 2.328 4.259 5.819 4.259 10.474v19.83h-11.101zm-.419-12.01v-2.164c-.792-.186-1.862-.279-3.212-.279-1.955 0-3.398.396-4.329 1.187-.931.745-1.396 1.653-1.396 2.723 0 2.42 1.303 3.63 3.91 3.63 1.21 0 2.35-.348 3.421-1.046 1.07-.745 1.606-2.095 1.606-4.05zM259.975 35.75V15.011h11.8v17.944c0 1.583.326 2.886.977 3.91.699.978 1.909 1.467 3.631 1.467 1.862 0 3.142-.606 3.84-1.816a7.326 7.326 0 001.117-3.91V15.012h11.8v32.816h-11.381l-.419-3.351a9.673 9.673 0 01-3.072 2.583c-1.163.605-2.327 1.024-3.491 1.257-1.164.28-2.141.419-2.932.419-3.398 0-6.238-1-8.519-3.002-2.234-2.049-3.351-5.377-3.351-9.985zM302.098 34.004v-9.915h-4.818v-9.077h4.818V4.189h11.8v10.823h8.099v9.077h-8.099v11.59c0 2.7 1.28 4.05 3.84 4.05.745 0 1.466-.163 2.165-.489a12.003 12.003 0 002.024-1.117l4.609 7.262a17.722 17.722 0 01-4.958 2.723 16.41 16.41 0 01-5.585.977c-3.538 0-6.331-.651-8.379-1.955-2.002-1.303-3.421-3.072-4.259-5.306-.838-2.281-1.257-4.888-1.257-7.82zM331.046 47.828V1.257h17.874c4.795 0 9.054.838 12.778 2.513 3.77 1.63 6.749 4.19 8.937 7.68 2.188 3.445 3.282 7.89 3.282 13.337 0 5.12-1.094 9.403-3.282 12.847-2.188 3.398-5.19 5.958-9.007 7.68-3.77 1.676-8.03 2.514-12.778 2.514h-17.804zm12.358-10.892h5.028c4.003 0 7.121-1.14 9.356-3.421 2.234-2.328 3.351-5.33 3.351-9.007 0-3.724-1.024-6.727-3.072-9.007-2.048-2.281-5.26-3.422-9.635-3.422h-5.028v24.857zM373.775 47.828l17.106-46.571h14.174l16.478 46.571h-13.336l-3.002-9.635h-15.57l-3.073 9.635h-12.777zm18.363-18.642h10.543l-5.167-17.107-5.376 17.107zM445.646 48.946c-3.491 0-6.726-.606-9.705-1.816-2.933-1.21-5.493-2.91-7.681-5.097-2.141-2.234-3.817-4.84-5.027-7.82-1.21-2.98-1.815-6.238-1.815-9.775 0-3.538.605-6.796 1.815-9.775 1.21-2.98 2.886-5.563 5.027-7.75 2.188-2.188 4.748-3.887 7.681-5.098C438.92.605 442.155 0 445.646 0c3.491 0 6.703.605 9.636 1.815 2.979 1.21 5.562 2.91 7.75 5.097 2.188 2.188 3.863 4.772 5.027 7.75 1.21 2.98 1.815 6.238 1.815 9.776 0 3.538-.605 6.796-1.815 9.775-1.164 2.98-2.839 5.586-5.027 7.82-2.188 2.188-4.771 3.887-7.75 5.097-2.933 1.21-6.145 1.816-9.636 1.816zm0-11.591c2.467 0 4.539-.582 6.214-1.746 1.723-1.163 3.026-2.723 3.91-4.678.885-1.955 1.327-4.12 1.327-6.493 0-2.374-.442-4.539-1.327-6.494-.884-1.955-2.187-3.514-3.91-4.678-1.675-1.164-3.747-1.745-6.214-1.745-2.42 0-4.492.581-6.214 1.745-1.676 1.164-2.979 2.723-3.91 4.678-.885 1.955-1.327 4.12-1.327 6.494 0 2.374.442 4.538 1.327 6.493.931 1.955 2.234 3.515 3.91 4.678 1.722 1.164 3.794 1.746 6.214 1.746z"></path>
  </g>
</svg>