<svg width="480" height="92" viewBox="0 0 480 92" fill="none" xmlns="http://www.w3.org/2000/svg">
<path d="M39.3706 21.84H4.16259V11.976H39.3706V21.84ZM36.5626 40.488H7.04259V30.984H36.5626V40.488ZM40.1626 60H3.37059V50.208H40.1626V60ZM49.7774 47.112V34.368H44.4494V26.232H49.7774V15.144H60.1454V26.232H68.8574V34.368H60.1454V47.688C60.1454 49.32 60.4574 50.592 61.0814 51.504C61.7534 52.368 62.7854 52.8 64.1774 52.8C65.2334 52.8 66.1454 52.632 66.9134 52.296C67.6814 51.912 68.4014 51.48 69.0734 51L73.2494 57.336C70.0334 59.928 66.4814 61.224 62.5934 61.224C59.3774 61.224 56.8334 60.624 54.9614 59.424C53.0894 58.224 51.7454 56.568 50.9294 54.456C50.1614 52.344 49.7774 49.896 49.7774 47.112ZM77.3512 60V11.976H87.6472V29.472C88.7512 28.176 90.2152 27.192 92.0392 26.52C93.8632 25.8 95.7112 25.44 97.5832 25.44C101.423 25.44 104.519 26.616 106.871 28.968C109.223 31.272 110.399 34.656 110.399 39.12V60H100.103V40.704C100.103 38.736 99.5992 37.2 98.5912 36.096C97.5832 34.992 96.2392 34.44 94.5592 34.44C92.3512 34.44 90.6472 35.184 89.4472 36.672C88.2952 38.16 87.7192 39.888 87.7192 41.856V60H77.3512ZM145.64 49.776L149.888 56.328C149.408 56.664 148.544 57.216 147.296 57.984C146.096 58.752 144.488 59.472 142.472 60.144C140.456 60.816 137.984 61.152 135.056 61.152C131.216 61.152 127.904 60.384 125.12 58.848C122.336 57.312 120.2 55.176 118.712 52.44C117.224 49.704 116.48 46.56 116.48 43.008C116.48 39.84 117.152 36.888 118.496 34.152C119.888 31.416 121.88 29.232 124.472 27.6C127.112 25.92 130.256 25.08 133.904 25.08C137.552 25.08 140.6 25.92 143.048 27.6C145.544 29.232 147.416 31.512 148.664 34.44C149.96 37.32 150.608 40.656 150.608 44.448V46.176H126.56C126.608 47.952 127.424 49.536 129.008 50.928C130.592 52.32 132.728 53.016 135.416 53.016C138.104 53.016 140.288 52.632 141.968 51.864C143.648 51.048 144.872 50.352 145.64 49.776ZM126.56 39.552H140.816C140.816 38.592 140.552 37.632 140.024 36.672C139.544 35.664 138.776 34.824 137.72 34.152C136.712 33.48 135.416 33.144 133.832 33.144C132.248 33.144 130.904 33.48 129.8 34.152C128.744 34.824 127.928 35.664 127.352 36.672C126.824 37.632 126.56 38.592 126.56 39.552ZM156.523 60V26.232H166.459L166.819 30.48C167.683 29.328 168.859 28.224 170.347 27.168C171.883 26.112 173.851 25.584 176.251 25.584C177.163 25.584 177.931 25.632 178.555 25.728C179.227 25.824 179.875 25.992 180.499 26.232L178.843 35.376C177.787 35.04 176.539 34.872 175.099 34.872C172.651 34.872 170.659 35.616 169.123 37.104C167.635 38.544 166.891 40.608 166.891 43.296V60H156.523ZM184.861 60V26.232H194.797L195.085 29.904C196.189 28.56 197.653 27.48 199.477 26.664C201.301 25.848 203.173 25.44 205.093 25.44C208.933 25.44 212.005 26.592 214.309 28.896C216.613 31.2 217.765 34.608 217.765 39.12V60H207.397V40.56C207.397 38.688 206.917 37.2 205.957 36.096C205.045 34.992 203.749 34.44 202.069 34.44C199.813 34.44 198.085 35.184 196.885 36.672C195.733 38.16 195.157 39.888 195.157 41.856V60H184.861ZM245.09 60L244.802 56.832C242.402 59.616 238.994 61.008 234.578 61.008C232.994 61.008 231.314 60.696 229.538 60.072C227.81 59.496 226.322 58.44 225.074 56.904C223.826 55.368 223.202 53.256 223.202 50.568C223.202 47.928 223.874 45.696 225.218 43.872C226.61 42.048 228.482 40.68 230.834 39.768C233.186 38.808 235.826 38.328 238.754 38.328C239.954 38.328 241.154 38.352 242.354 38.4C243.602 38.448 244.418 38.52 244.802 38.616V37.896C244.802 36.168 244.13 34.944 242.786 34.224C241.49 33.456 240.002 33.072 238.322 33.072C236.066 33.072 234.17 33.36 232.634 33.936C231.098 34.512 229.802 35.16 228.746 35.88L224.498 29.544C225.89 28.44 227.786 27.432 230.186 26.52C232.586 25.56 235.778 25.08 239.762 25.08C244.898 25.08 248.69 26.472 251.138 29.256C253.586 31.992 254.81 35.688 254.81 40.344V60H245.09ZM244.802 47.832V45.096C244.562 45.048 244.106 45 243.434 44.952C242.762 44.856 241.994 44.808 241.13 44.808C238.25 44.808 236.21 45.216 235.01 46.032C233.81 46.848 233.21 48 233.21 49.488C233.21 52.272 234.89 53.664 238.25 53.664C239.882 53.664 241.37 53.16 242.714 52.152C244.106 51.144 244.802 49.704 244.802 47.832ZM262.129 47.184V26.232H272.497V45.672C272.497 47.592 272.953 49.104 273.865 50.208C274.825 51.312 276.217 51.864 278.041 51.864C280.153 51.864 281.785 51.12 282.937 49.632C284.089 48.096 284.665 46.368 284.665 44.448V26.232H294.961V60H285.025L284.737 56.4C283.633 57.696 282.169 58.776 280.345 59.64C278.569 60.456 276.697 60.864 274.729 60.864C270.889 60.864 267.817 59.712 265.513 57.408C263.257 55.104 262.129 51.696 262.129 47.184ZM305.152 47.112V34.368H299.824V26.232H305.152V15.144H315.52V26.232H324.232V34.368H315.52V47.688C315.52 49.32 315.832 50.592 316.456 51.504C317.128 52.368 318.16 52.8 319.552 52.8C320.608 52.8 321.52 52.632 322.288 52.296C323.056 51.912 323.776 51.48 324.448 51L328.624 57.336C325.408 59.928 321.856 61.224 317.968 61.224C314.752 61.224 312.208 60.624 310.336 59.424C308.464 58.224 307.12 56.568 306.304 54.456C305.536 52.344 305.152 49.896 305.152 47.112ZM333.59 60V11.976H351.734C356.678 11.976 361.07 12.84 364.91 14.568C368.798 16.248 371.846 18.888 374.054 22.488C376.262 26.04 377.366 30.624 377.366 36.24C377.366 41.52 376.238 45.936 373.982 49.488C371.774 52.992 368.726 55.632 364.838 57.408C360.998 59.136 356.606 60 351.662 60H333.59ZM344.462 50.352H351.086C355.886 50.352 359.582 49.08 362.174 46.536C364.766 43.992 366.062 40.536 366.062 36.168C366.062 31.752 364.862 28.224 362.462 25.584C360.062 22.896 356.27 21.552 351.086 21.552H344.462V50.352ZM378.492 60L396.42 11.976H408.444L426.012 60H414.132L410.46 48.984H393.54L389.868 60H378.492ZM396.06 40.56H407.868L402.036 22.416L396.06 40.56ZM452.116 61.224C448.564 61.224 445.276 60.6 442.252 59.352C439.228 58.056 436.564 56.256 434.26 53.952C432.004 51.648 430.252 48.96 429.004 45.888C427.756 42.816 427.132 39.504 427.132 35.952C427.132 32.352 427.756 29.04 429.004 26.016C430.252 22.944 432.004 20.256 434.26 17.952C436.516 15.648 439.156 13.872 442.18 12.624C445.252 11.328 448.564 10.68 452.116 10.68C455.668 10.68 458.956 11.328 461.98 12.624C465.004 13.872 467.644 15.648 469.9 17.952C472.204 20.256 473.98 22.944 475.228 26.016C476.476 29.04 477.1 32.352 477.1 35.952C477.1 39.504 476.476 42.816 475.228 45.888C473.98 48.96 472.204 51.648 469.9 53.952C467.644 56.256 465.004 58.056 461.98 59.352C458.956 60.6 455.668 61.224 452.116 61.224ZM452.116 51C454.948 51 457.372 50.304 459.388 48.912C461.452 47.52 463.012 45.672 464.068 43.368C465.172 41.064 465.724 38.544 465.724 35.808C465.724 33.072 465.172 30.576 464.068 28.32C463.012 26.016 461.452 24.192 459.388 22.848C457.372 21.456 454.948 20.76 452.116 20.76C449.284 20.76 446.836 21.456 444.772 22.848C442.756 24.192 441.196 26.016 440.092 28.32C438.988 30.576 438.436 33.072 438.436 35.808C438.436 38.544 438.988 41.064 440.092 43.368C441.196 45.672 442.756 47.52 444.772 48.912C446.836 50.304 449.284 51 452.116 51Z" fill="white"/>
<path d="M25.3953 85.936V84.624H36.9313V85.936H25.3953ZM57.5829 90C57.0495 90 56.5962 89.8133 56.2229 89.44C55.8495 89.0667 55.6629 88.6133 55.6629 88.08V87.632H56.9589V88.08C56.9589 88.2507 57.0175 88.4 57.1349 88.528C57.2629 88.6453 57.4122 88.704 57.5829 88.704H65.2629C65.4335 88.704 65.5775 88.6453 65.6949 88.528C65.8229 88.4 65.8869 88.2507 65.8869 88.08V85.504C65.8869 85.3333 65.8229 85.1893 65.6949 85.072C65.5775 84.9547 65.4335 84.896 65.2629 84.896H57.5829C57.0495 84.896 56.5962 84.7093 56.2229 84.336C55.8495 83.952 55.6629 83.4987 55.6629 82.976V80.4C55.6629 79.8667 55.8495 79.4133 56.2229 79.04C56.5962 78.6667 57.0495 78.48 57.5829 78.48H65.2629C65.7962 78.48 66.2495 78.6667 66.6229 79.04C66.9962 79.4133 67.1829 79.8667 67.1829 80.4V80.848H65.8869V80.4C65.8869 80.2293 65.8229 80.0853 65.6949 79.968C65.5775 79.84 65.4335 79.776 65.2629 79.776H57.5829C57.4122 79.776 57.2629 79.84 57.1349 79.968C57.0175 80.0853 56.9589 80.2293 56.9589 80.4V82.976C56.9589 83.1467 57.0175 83.2907 57.1349 83.408C57.2629 83.5253 57.4122 83.584 57.5829 83.584H65.2629C65.7962 83.584 66.2495 83.776 66.6229 84.16C66.9962 84.5333 67.1829 84.9813 67.1829 85.504V88.08C67.1829 88.6133 66.9962 89.0667 66.6229 89.44C66.2495 89.8133 65.7962 90 65.2629 90H57.5829ZM77.1871 90C76.6538 90 76.2005 89.8133 75.8271 89.44C75.4538 89.0667 75.2671 88.6133 75.2671 88.08V80.4C75.2671 79.8667 75.4538 79.4133 75.8271 79.04C76.2005 78.6667 76.6538 78.48 77.1871 78.48H84.8671C85.4005 78.48 85.8538 78.6667 86.2271 79.04C86.6005 79.4133 86.7871 79.8667 86.7871 80.4V88.08C86.7871 88.6133 86.6005 89.0667 86.2271 89.44C85.8538 89.8133 85.4005 90 84.8671 90H77.1871ZM77.1871 88.704H84.8671C85.0378 88.704 85.1818 88.6453 85.2991 88.528C85.4271 88.4 85.4911 88.2507 85.4911 88.08V80.4C85.4911 80.2293 85.4271 80.0853 85.2991 79.968C85.1818 79.84 85.0378 79.776 84.8671 79.776H77.1871C77.0165 79.776 76.8671 79.84 76.7391 79.968C76.6218 80.0853 76.5631 80.2293 76.5631 80.4V88.08C76.5631 88.2507 76.6218 88.4 76.7391 88.528C76.8671 88.6453 77.0165 88.704 77.1871 88.704ZM94.9651 90V78.464H96.2611V88.704H106.485V90H94.9651ZM113.754 90V78.48H115.066V90H113.754ZM123.672 90V78.48H133.272C133.805 78.48 134.258 78.6667 134.632 79.04C135.005 79.4133 135.192 79.8667 135.192 80.4V88.08C135.192 88.6133 135.005 89.0667 134.632 89.44C134.258 89.8133 133.805 90 133.272 90H123.672ZM125.592 88.704H133.272C133.442 88.704 133.586 88.6453 133.704 88.528C133.832 88.4 133.896 88.2507 133.896 88.08V80.4C133.896 80.2293 133.832 80.0853 133.704 79.968C133.586 79.84 133.442 79.776 133.272 79.776H125.592C125.421 79.776 125.272 79.84 125.144 79.968C125.026 80.0853 124.968 80.2293 124.968 80.4V88.08C124.968 88.2507 125.026 88.4 125.144 88.528C125.272 88.6453 125.421 88.704 125.592 88.704ZM143.32 90V78.48H144.632V90H143.32ZM153.237 90V78.48H163.749V79.776H154.533V83.584H161.941V84.896H154.533V90H153.237ZM175.84 90V85.664L170.544 78.48H172.032L176.496 84.112L180.912 78.48H182.432L177.136 85.664V90H175.84ZM190.395 90V78.48H191.707V90H190.395ZM200.28 90V78.48H202.056L210.504 88.528V78.48H211.8V90H210.024L201.576 79.952V90H200.28ZM221.913 90C221.38 90 220.926 89.8133 220.553 89.44C220.18 89.0667 219.993 88.6133 219.993 88.08V80.4C219.993 79.8667 220.18 79.4133 220.553 79.04C220.926 78.6667 221.38 78.48 221.913 78.48H229.593C230.126 78.48 230.58 78.6667 230.953 79.04C231.326 79.4133 231.513 79.8667 231.513 80.4V80.864H230.217V80.4C230.217 80.2293 230.153 80.0853 230.025 79.968C229.908 79.84 229.764 79.776 229.593 79.776H221.913C221.742 79.776 221.593 79.84 221.465 79.968C221.348 80.0853 221.289 80.2293 221.289 80.4V88.08C221.289 88.2507 221.348 88.4 221.465 88.528C221.593 88.6453 221.742 88.704 221.913 88.704H229.593C229.764 88.704 229.908 88.6453 230.025 88.528C230.153 88.4 230.217 88.2507 230.217 88.08V85.232H227.369V83.92H231.513V88.08C231.513 88.6133 231.326 89.0667 230.953 89.44C230.58 89.8133 230.126 90 229.593 90H221.913ZM254.978 90V79.776H249.858V78.48H261.378V79.776H256.274V90H254.978ZM268.99 90V78.48H270.286V83.584H279.486V78.48H280.798V90H279.486V84.896H270.286V90H268.99ZM289.015 90V78.48H299.527V79.776H290.311V83.584H297.719V84.896H290.311V88.704H299.527V90H289.015ZM318.425 90V78.48H328.937V79.776H319.721V83.584H327.129V84.896H319.721V90H318.425ZM338.243 90C337.71 90 337.257 89.8133 336.883 89.44C336.51 89.0667 336.323 88.6133 336.323 88.08V78.48H337.619V88.08C337.619 88.2507 337.678 88.4 337.795 88.528C337.923 88.6453 338.073 88.704 338.243 88.704H345.923C346.094 88.704 346.238 88.6453 346.355 88.528C346.483 88.4 346.547 88.2507 346.547 88.08V78.48H347.843V88.08C347.843 88.6133 347.657 89.0667 347.283 89.44C346.91 89.8133 346.457 90 345.923 90H338.243ZM360.549 90V79.776H355.429V78.48H366.949V79.776H361.845V90H360.549ZM376.434 90C375.901 90 375.447 89.8133 375.074 89.44C374.701 89.0667 374.514 88.6133 374.514 88.08V78.48H375.81V88.08C375.81 88.2507 375.869 88.4 375.986 88.528C376.114 88.6453 376.263 88.704 376.434 88.704H384.114C384.285 88.704 384.429 88.6453 384.546 88.528C384.674 88.4 384.738 88.2507 384.738 88.08V78.48H386.034V88.08C386.034 88.6133 385.847 89.0667 385.474 89.44C385.101 89.8133 384.647 90 384.114 90H376.434ZM394.18 90V78.496H403.78C404.313 78.496 404.767 78.688 405.14 79.072C405.513 79.4453 405.7 79.8933 405.7 80.416V83.792C405.7 84.3147 405.513 84.768 405.14 85.152C404.767 85.5253 404.313 85.712 403.78 85.712H402.02L405.636 89.984V90H403.924L400.324 85.712L395.476 85.696V90H394.18ZM396.1 84.4H403.78C403.951 84.4 404.095 84.3413 404.212 84.224C404.329 84.1067 404.388 83.9627 404.388 83.792V80.416C404.388 80.2453 404.329 80.1013 404.212 79.984C404.095 79.856 403.951 79.792 403.78 79.792H396.1C395.929 79.792 395.78 79.856 395.652 79.984C395.535 80.1013 395.476 80.2453 395.476 80.416V83.792C395.476 83.9627 395.535 84.1067 395.652 84.224C395.78 84.3413 395.929 84.4 396.1 84.4ZM413.831 90V78.48H424.343V79.776H415.127V83.584H422.535V84.896H415.127V88.704H424.343V90H413.831ZM443.177 85.936V84.624H454.713V85.936H443.177Z" fill="#ADBDCC"/>
</svg>
