<svg width="475" height="138" viewBox="0 0 475 138" fill="none" xmlns="http://www.w3.org/2000/svg">
<path d="M36.3706 11.84H1.16259V1.976H36.3706V11.84ZM33.5626 30.488H4.04259V20.984H33.5626V30.488ZM37.1626 50H0.370594V40.208H37.1626V50ZM46.7774 37.112V24.368H41.4494V16.232H46.7774V5.144H57.1454V16.232H65.8574V24.368H57.1454V37.688C57.1454 39.32 57.4574 40.592 58.0814 41.504C58.7534 42.368 59.7854 42.8 61.1774 42.8C62.2334 42.8 63.1454 42.632 63.9134 42.296C64.6814 41.912 65.4014 41.48 66.0734 41L70.2494 47.336C67.0334 49.928 63.4814 51.224 59.5934 51.224C56.3774 51.224 53.8334 50.624 51.9614 49.424C50.0894 48.224 48.7454 46.568 47.9294 44.456C47.1614 42.344 46.7774 39.896 46.7774 37.112ZM74.3512 50V1.976H84.6472V19.472C85.7512 18.176 87.2152 17.192 89.0392 16.52C90.8632 15.8 92.7112 15.44 94.5832 15.44C98.4232 15.44 101.519 16.616 103.871 18.968C106.223 21.272 107.399 24.656 107.399 29.12V50H97.1032V30.704C97.1032 28.736 96.5992 27.2 95.5912 26.096C94.5832 24.992 93.2392 24.44 91.5592 24.44C89.3512 24.44 87.6472 25.184 86.4472 26.672C85.2952 28.16 84.7192 29.888 84.7192 31.856V50H74.3512ZM142.64 39.776L146.888 46.328C146.408 46.664 145.544 47.216 144.296 47.984C143.096 48.752 141.488 49.472 139.472 50.144C137.456 50.816 134.984 51.152 132.056 51.152C128.216 51.152 124.904 50.384 122.12 48.848C119.336 47.312 117.2 45.176 115.712 42.44C114.224 39.704 113.48 36.56 113.48 33.008C113.48 29.84 114.152 26.888 115.496 24.152C116.888 21.416 118.88 19.232 121.472 17.6C124.112 15.92 127.256 15.08 130.904 15.08C134.552 15.08 137.6 15.92 140.048 17.6C142.544 19.232 144.416 21.512 145.664 24.44C146.96 27.32 147.608 30.656 147.608 34.448V36.176H123.56C123.608 37.952 124.424 39.536 126.008 40.928C127.592 42.32 129.728 43.016 132.416 43.016C135.104 43.016 137.288 42.632 138.968 41.864C140.648 41.048 141.872 40.352 142.64 39.776ZM123.56 29.552H137.816C137.816 28.592 137.552 27.632 137.024 26.672C136.544 25.664 135.776 24.824 134.72 24.152C133.712 23.48 132.416 23.144 130.832 23.144C129.248 23.144 127.904 23.48 126.8 24.152C125.744 24.824 124.928 25.664 124.352 26.672C123.824 27.632 123.56 28.592 123.56 29.552ZM153.523 50V16.232H163.459L163.819 20.48C164.683 19.328 165.859 18.224 167.347 17.168C168.883 16.112 170.851 15.584 173.251 15.584C174.163 15.584 174.931 15.632 175.555 15.728C176.227 15.824 176.875 15.992 177.499 16.232L175.843 25.376C174.787 25.04 173.539 24.872 172.099 24.872C169.651 24.872 167.659 25.616 166.123 27.104C164.635 28.544 163.891 30.608 163.891 33.296V50H153.523ZM181.861 50V16.232H191.797L192.085 19.904C193.189 18.56 194.653 17.48 196.477 16.664C198.301 15.848 200.173 15.44 202.093 15.44C205.933 15.44 209.005 16.592 211.309 18.896C213.613 21.2 214.765 24.608 214.765 29.12V50H204.397V30.56C204.397 28.688 203.917 27.2 202.957 26.096C202.045 24.992 200.749 24.44 199.069 24.44C196.813 24.44 195.085 25.184 193.885 26.672C192.733 28.16 192.157 29.888 192.157 31.856V50H181.861ZM242.09 50L241.802 46.832C239.402 49.616 235.994 51.008 231.578 51.008C229.994 51.008 228.314 50.696 226.538 50.072C224.81 49.496 223.322 48.44 222.074 46.904C220.826 45.368 220.202 43.256 220.202 40.568C220.202 37.928 220.874 35.696 222.218 33.872C223.61 32.048 225.482 30.68 227.834 29.768C230.186 28.808 232.826 28.328 235.754 28.328C236.954 28.328 238.154 28.352 239.354 28.4C240.602 28.448 241.418 28.52 241.802 28.616V27.896C241.802 26.168 241.13 24.944 239.786 24.224C238.49 23.456 237.002 23.072 235.322 23.072C233.066 23.072 231.17 23.36 229.634 23.936C228.098 24.512 226.802 25.16 225.746 25.88L221.498 19.544C222.89 18.44 224.786 17.432 227.186 16.52C229.586 15.56 232.778 15.08 236.762 15.08C241.898 15.08 245.69 16.472 248.138 19.256C250.586 21.992 251.81 25.688 251.81 30.344V50H242.09ZM241.802 37.832V35.096C241.562 35.048 241.106 35 240.434 34.952C239.762 34.856 238.994 34.808 238.13 34.808C235.25 34.808 233.21 35.216 232.01 36.032C230.81 36.848 230.21 38 230.21 39.488C230.21 42.272 231.89 43.664 235.25 43.664C236.882 43.664 238.37 43.16 239.714 42.152C241.106 41.144 241.802 39.704 241.802 37.832ZM259.129 37.184V16.232H269.497V35.672C269.497 37.592 269.953 39.104 270.865 40.208C271.825 41.312 273.217 41.864 275.041 41.864C277.153 41.864 278.785 41.12 279.937 39.632C281.089 38.096 281.665 36.368 281.665 34.448V16.232H291.961V50H282.025L281.737 46.4C280.633 47.696 279.169 48.776 277.345 49.64C275.569 50.456 273.697 50.864 271.729 50.864C267.889 50.864 264.817 49.712 262.513 47.408C260.257 45.104 259.129 41.696 259.129 37.184ZM302.152 37.112V24.368H296.824V16.232H302.152V5.144H312.52V16.232H321.232V24.368H312.52V37.688C312.52 39.32 312.832 40.592 313.456 41.504C314.128 42.368 315.16 42.8 316.552 42.8C317.608 42.8 318.52 42.632 319.288 42.296C320.056 41.912 320.776 41.48 321.448 41L325.624 47.336C322.408 49.928 318.856 51.224 314.968 51.224C311.752 51.224 309.208 50.624 307.336 49.424C305.464 48.224 304.12 46.568 303.304 44.456C302.536 42.344 302.152 39.896 302.152 37.112ZM330.59 50V1.976H348.734C353.678 1.976 358.07 2.84 361.91 4.568C365.798 6.248 368.846 8.888 371.054 12.488C373.262 16.04 374.366 20.624 374.366 26.24C374.366 31.52 373.238 35.936 370.982 39.488C368.774 42.992 365.726 45.632 361.838 47.408C357.998 49.136 353.606 50 348.662 50H330.59ZM341.462 40.352H348.086C352.886 40.352 356.582 39.08 359.174 36.536C361.766 33.992 363.062 30.536 363.062 26.168C363.062 21.752 361.862 18.224 359.462 15.584C357.062 12.896 353.27 11.552 348.086 11.552H341.462V40.352ZM375.492 50L393.42 1.976H405.444L423.012 50H411.132L407.46 38.984H390.54L386.868 50H375.492ZM393.06 30.56H404.868L399.036 12.416L393.06 30.56ZM449.116 51.224C445.564 51.224 442.276 50.6 439.252 49.352C436.228 48.056 433.564 46.256 431.26 43.952C429.004 41.648 427.252 38.96 426.004 35.888C424.756 32.816 424.132 29.504 424.132 25.952C424.132 22.352 424.756 19.04 426.004 16.016C427.252 12.944 429.004 10.256 431.26 7.952C433.516 5.648 436.156 3.872 439.18 2.624C442.252 1.328 445.564 0.679996 449.116 0.679996C452.668 0.679996 455.956 1.328 458.98 2.624C462.004 3.872 464.644 5.648 466.9 7.952C469.204 10.256 470.98 12.944 472.228 16.016C473.476 19.04 474.1 22.352 474.1 25.952C474.1 29.504 473.476 32.816 472.228 35.888C470.98 38.96 469.204 41.648 466.9 43.952C464.644 46.256 462.004 48.056 458.98 49.352C455.956 50.6 452.668 51.224 449.116 51.224ZM449.116 41C451.948 41 454.372 40.304 456.388 38.912C458.452 37.52 460.012 35.672 461.068 33.368C462.172 31.064 462.724 28.544 462.724 25.808C462.724 23.072 462.172 20.576 461.068 18.32C460.012 16.016 458.452 14.192 456.388 12.848C454.372 11.456 451.948 10.76 449.116 10.76C446.284 10.76 443.836 11.456 441.772 12.848C439.756 14.192 438.196 16.016 437.092 18.32C435.988 20.576 435.436 23.072 435.436 25.808C435.436 28.544 435.988 31.064 437.092 33.368C438.196 35.672 439.756 37.52 441.772 38.912C443.836 40.304 446.284 41 449.116 41ZM150.786 104.36V95.576H169.29V116.384C166.794 118.496 163.866 120.152 160.506 121.352C157.194 122.552 153.402 123.152 149.13 123.152C143.898 123.152 139.41 122.096 135.666 119.984C131.922 117.824 129.042 114.872 127.026 111.128C125.058 107.336 124.074 102.992 124.074 98.096C124.074 94.496 124.674 91.16 125.874 88.088C127.074 85.016 128.778 82.328 130.986 80.024C133.194 77.72 135.81 75.944 138.834 74.696C141.906 73.4 145.266 72.752 148.914 72.752C153.282 72.752 157.122 73.568 160.434 75.2C163.746 76.784 166.458 79.016 168.57 81.896L161.226 88.88C159.738 87.056 158.058 85.568 156.186 84.416C154.314 83.264 152.034 82.688 149.346 82.688C146.418 82.688 143.898 83.384 141.786 84.776C139.722 86.168 138.138 88.04 137.034 90.392C135.93 92.696 135.378 95.264 135.378 98.096C135.378 101.168 136.002 103.856 137.25 106.16C138.546 108.416 140.274 110.168 142.434 111.416C144.594 112.664 147.042 113.288 149.778 113.288C151.698 113.288 153.45 113.072 155.034 112.64C156.618 112.16 158.034 111.416 159.282 110.408V104.36H150.786ZM196.985 122L196.697 118.832C194.297 121.616 190.889 123.008 186.473 123.008C184.889 123.008 183.209 122.696 181.433 122.072C179.705 121.496 178.217 120.44 176.969 118.904C175.721 117.368 175.097 115.256 175.097 112.568C175.097 109.928 175.769 107.696 177.113 105.872C178.505 104.048 180.377 102.68 182.729 101.768C185.081 100.808 187.721 100.328 190.649 100.328C191.849 100.328 193.049 100.352 194.249 100.4C195.497 100.448 196.313 100.52 196.697 100.616V99.896C196.697 98.168 196.025 96.944 194.681 96.224C193.385 95.456 191.897 95.072 190.217 95.072C187.961 95.072 186.065 95.36 184.529 95.936C182.993 96.512 181.697 97.16 180.641 97.88L176.393 91.544C177.785 90.44 179.681 89.432 182.081 88.52C184.481 87.56 187.673 87.08 191.657 87.08C196.793 87.08 200.585 88.472 203.033 91.256C205.481 93.992 206.705 97.688 206.705 102.344V122H196.985ZM196.697 109.832V107.096C196.457 107.048 196.001 107 195.329 106.952C194.657 106.856 193.889 106.808 193.025 106.808C190.145 106.808 188.105 107.216 186.905 108.032C185.705 108.848 185.105 110 185.105 111.488C185.105 114.272 186.785 115.664 190.145 115.664C191.777 115.664 193.265 115.16 194.609 114.152C196.001 113.144 196.697 111.704 196.697 109.832ZM214.168 122V73.976H224.536V122H214.168ZM232.168 122V73.976H242.536V122H232.168ZM277.816 111.776L282.064 118.328C281.584 118.664 280.72 119.216 279.472 119.984C278.272 120.752 276.664 121.472 274.648 122.144C272.632 122.816 270.16 123.152 267.232 123.152C263.392 123.152 260.08 122.384 257.296 120.848C254.512 119.312 252.376 117.176 250.888 114.44C249.4 111.704 248.656 108.56 248.656 105.008C248.656 101.84 249.328 98.888 250.672 96.152C252.064 93.416 254.056 91.232 256.648 89.6C259.288 87.92 262.432 87.08 266.08 87.08C269.728 87.08 272.776 87.92 275.224 89.6C277.72 91.232 279.592 93.512 280.84 96.44C282.136 99.32 282.784 102.656 282.784 106.448V108.176H258.736C258.784 109.952 259.6 111.536 261.184 112.928C262.768 114.32 264.904 115.016 267.592 115.016C270.28 115.016 272.464 114.632 274.144 113.864C275.824 113.048 277.048 112.352 277.816 111.776ZM258.736 101.552H272.992C272.992 100.592 272.728 99.632 272.2 98.672C271.72 97.664 270.952 96.824 269.896 96.152C268.888 95.48 267.592 95.144 266.008 95.144C264.424 95.144 263.08 95.48 261.976 96.152C260.92 96.824 260.104 97.664 259.528 98.672C259 99.632 258.736 100.592 258.736 101.552ZM288.699 122V88.232H298.635L298.995 92.48C299.859 91.328 301.035 90.224 302.523 89.168C304.059 88.112 306.027 87.584 308.427 87.584C309.339 87.584 310.107 87.632 310.731 87.728C311.403 87.824 312.051 87.992 312.675 88.232L311.019 97.376C309.963 97.04 308.715 96.872 307.275 96.872C304.827 96.872 302.835 97.616 301.299 99.104C299.811 100.544 299.067 102.608 299.067 105.296V122H288.699ZM314.66 134.456L318.836 127.328C319.412 127.76 320.06 128.144 320.78 128.48C321.5 128.816 322.244 128.984 323.012 128.984C324.116 128.984 325.052 128.624 325.82 127.904C326.588 127.232 327.284 126.056 327.908 124.376L328.916 121.64L313.508 88.232H325.316L333.74 109.544L341.372 88.232H352.388L338.564 121.784C337.796 123.656 337.028 125.504 336.26 127.328C335.492 129.152 334.58 130.808 333.524 132.296C332.516 133.832 331.22 135.032 329.636 135.896C328.052 136.808 326.084 137.264 323.732 137.264C321.908 137.264 320.252 137.024 318.764 136.544C317.276 136.064 315.908 135.368 314.66 134.456Z" fill="url(#paint0_linear_723_1131)"/>
<defs>
<linearGradient id="paint0_linear_723_1131" x1="-3" y1="-10" x2="427.146" y2="176.8" gradientUnits="userSpaceOnUse">
<stop stop-color="#ACFFD6"/>
<stop offset="1" stop-color="#8FDEFF"/>
</linearGradient>
</defs>
</svg>
